<svg version="1.2" xmlns="http://www.w3.org/2000/svg" viewBox="0 0 700 700" width="700" height="700"><style></style><path fill-rule="evenodd" d="m543.7 213.9q12.3 15.4 10.5 34.1v0.1q-6.4 66.3-26.7 128.6 31.1 123.9-41.4 165.1 0.8 2.2 0.7 4.8c-1 32.4-14.1 52.6-39.2 60.7l-0.1 0.1q-32 10.8-63.7 7h-0.1q-31.4-4-57.2-17l0.1 0.1q-37.8-18.5-36.6-49.5-0.8-9.3 7.3-21.8-7.8-2.8-15.2-6.6h0.1q-25-12.6-37.3-35.1-0.1-0.1-0.1-0.2-8.9-15.7-16.8-22.6l-0.1-0.1q-8.7-6.3-35.5-12.6-42-10-45.4-44.3v-0.1q-4.5-35.6 27.2-48.5 26.6-11.2 50.1-4.6l-0.1-0.1q21.1 5.5 38.7 15.9h-0.1q0.7 0.4 1.4 0.8-34.3-143.7-35.9-163.4h0.1q-2.4-27.1 6.1-42.2v0.1q9-17.3 27.9-24.1 0.1-0.1 0.3-0.1 18.9-6.3 37 1.9l0.2 0.1q2.5 1.1 4.7 2.6 0.5-5.9 1.4-10.7v0.2q5.3-33.1 30.3-43h-0.1q24.6-10.7 45.6 1.7l0.1 0.1q19.4 11.2 27.4 32.4l0.1 0.2q1 2.7 2.1 10.3 11.9-10 27.9-11.1 20.3-1.4 35.6 12.3 14.9 13.2 16.6 33.3v0.1q0.9 13.6 1.3 27.1 9.1-2.1 19.4-0.4 19 3 31.4 18.4zm-16.9 31.6q0.6-7.9-4.7-14.4-5.6-7-14.1-8.4h-0.1q-8.1-1.4-14.4 3-0.2 0.1-0.3 0.2-0.4 50.4-7.3 114.8-0.6 5.6-5.1 9.2-4.4 3.6-10.1 3-5.6-0.6-9.1-5.1-3.6-4.4-3-10.1 7-65.7 7-116.4 0-1 0-2 0-10.5-0.1-20.5-0.5-14-1.5-28-0.7-9-7.3-14.9-6.7-5.9-15.5-5.3-8.8 0.7-14.8 7.4l-0.1 0.1q-5.6 6.7-5 15.6v0.2q0.4 7.4 2.6 146.7v0.5q0.1 5.6-3.8 9.7-3.9 4.1-9.5 4.2-5.7 0.2-9.8-3.6-4.2-3.9-4.4-9.4 0-0.3 0-0.5-8.2-173.3-13-188.4-4.4-11.8-15.3-18.1l0.2 0.1q-9.7-5.2-21.1-0.3h-0.1q-11.3 5.6-14 22.1v0.2q-3.8 22.7 3.8 69.5 12.9 44.6 24 118.7 0.8 5.6-2.5 10.1-3.4 4.6-9 5.4-5.6 0.9-10.3-2.5-4.5-3.4-5.4-9-10.8-72.1-23.4-115.3-0.1-0.4-0.2-0.9-2.6-8.9-3.3-10.9-0.1-0.4-0.2-0.8-3.7-12.5-8.2-24.9l0.1 0.1q-2.8-7.6-10.2-11.2-0.1 0-0.2-0.1-8-3.6-16.3-0.9-0.2 0.1-0.3 0.1-8.5 3.2-12.6 10.9v0.1q-4.6 9.6-3.1 26.8h0.1q1.8 20.3 38.6 174.3 4.8-0.1 11.5-0.4h0.2q19.3-1.4 48 11.1v-0.1q29.7 12.5 47.8 49.6 2.5 5.2 0.6 10.5-1.9 5.4-7 7.9-5.1 2.5-10.5 0.6-5.4-1.9-7.9-7-13-26.7-34-36.2v-0.1q-21.4-9.3-35.6-8.8h-0.2q-18.1 0.9-24.7 0.4-0.8-0.1-1.6-0.2-0.3-0.1-0.8-0.2-13.6-2.3-31.3-12.7h-0.1q-14.4-8.4-31.6-12.8l-0.1-0.1q-15.2-3.9-32.5 3.4-12.2 5.4-10.3 19.6v0.1q3 16 24.4 21.1 35.7 8.4 46.6 18l0.1 0.1q11.2 9 23.4 30.6l0.1 0.2q8.5 15.3 25.6 23.8h0.1q18.8 9.7 40.7 12.4 5.7 0.7 9.2 5.2 3.5 4.5 2.8 10.2-0.7 5.6-5.2 9.1-4.5 3.5-10.2 2.8-3-0.3-6.1-0.9-7.3 8.9-8.4 14.2 1.2 14.9 21.3 24.8l0.1 0.1q21.7 10.9 48.2 14.1 25.7 3 51.6-5.8l-0.1 0.1q17-6.7 20.1-28-1.9 0.6-3.7 1.1-5.5 1.6-10.5-1.1-5-2.7-6.6-8.2-1.6-5.4 1.1-10.5 2.7-5 8.2-6.6 84.5-26.7 52.7-148.3-1.1-4 0.2-7.9 20.5-61.2 26.7-126.3z"/></svg>