<svg version="1.2" xmlns="http://www.w3.org/2000/svg" viewBox="0 0 700 700" width="700" height="700"><style></style><path fill-rule="evenodd" d="m540.7 275.7q14.5 16.3 15.1 47.9v0.2q0.8 30.8-24.8 59.4h-0.1q-5.9 6.5-11.6 11.5 11.5 68.4-29.8 97.3l-0.1 0.2q-11.3 8.4-21.6 13.6-4.6 51.4-46.7 64.9l-0.1 0.1q-38.6 13-76.7 8.4h-0.1q-37.5-4.7-68.8-20.4l0.2 0.2q-45.5-22.3-44-59.5-0.5-10.2 4.9-20.3-40.1-16.7-59.3-41.5l-0.1-0.1q-34-41.8-33.1-74.6-0.4-46.4 40-85.1h-0.2q1.9-1.8 3.8-3.5-26.8-76.1 17.5-125.5l0.1-0.1q26.1-30.2 53.8-28.7 26.8-0.6 54.1 29.1 0.5 0.4 0.8 0.7 1.5 1.1 2.7 2.5 3.2 3.8 5.2 6.7 4.3 5.6 7.8 11.7 17.8-12.8 35-12.1 30.9 0 44.9 20.1 0.3 0.3 0.6 0.7 2 3.1 3.8 5.8 7.2-1.6 14.8-1.6 31.6-0.7 54.1 29.7l0.1 0.1q14.2 19.9 17.5 43.5h1.2q22.6-0.2 38.8 18.5 0.1 0.2 0.3 0.2zm-136.3 53.7q0.9 2.9 2.4 5.4v0.2q4.3 5.5 13 5.5 21.7-0.6 35.4-22.6l-0.1 0.1q13.1-21.7 13.1-46.8 0.1-21.1-12.1-38.1l-0.1-0.1q-11.2-15.2-26.5-16.2 4.2 14.2 4.2 29.7 0 15.3-3.2 29.7-4.5 19.9-15.3 37.8-1.4 2.4-2.8 4.8-0.3 0.4-0.5 0.7-3.6 5.4-7.5 9.9zm-72.4-34.9q0 12.8 4.5 20.8h0.1q4.4 6.2 13.6 6.3 13.7-0.1 24.4-9h-0.1q5.1-4.4 9.6-10.8 1.4-2.4 2.8-4.8 8-13.3 11.2-28 2.5-10.9 2.5-22.5 0-16.1-6.6-30.1-0.4-0.9-0.7-1.9-0.9-1.4-1.4-2.8-0.3-0.3-0.4-0.6-1.9-2.8-4.2-6.1v-0.1q-2-2.9-4.2-6.2-0.1-0.2-0.2-0.4l-0.4-0.4q-6.1-6.1-17.9-6.1-10.7 0.9-22.4 11.8 2.8 11.9 3.5 23.8v0.1q1.3 20-3.4 39.6l0.3-0.8q-0.5 2.6-1 5.3-0.2 0.9-0.5 1.9-3.7 11.9-9.1 21zm-116-40.7q8.7-4.9 17.2-7.6 0.4 0 0.6-0.1 0.4-0.1 0.9-0.2 0-0.9 0.1-1.8 0-0.8 0.1-1.6 0.6-4.6 10.3-26.5 2.8-6.2 9.1-8.7 6.4-2.5 12.7 0.3 6.3 2.8 8.8 9.1 2.4 6.4-0.4 12.8-4.1 9.4-6.2 14.3 14.9 2.4 25.5 10.4 0.2 0.1 0.4 0.2 8 6.1 12.6 14.4 0.8-2.1 1.4-4.2 0.5-2.2 0.9-4.3 0.1-0.4 0.2-0.9 3.5-14.8 2.4-29.8v-0.1q-0.6-11.3-3.7-22.5-1.1-3.9-2.2-7.6-4.3-11.4-11.5-20.8-0.2-0.3-0.5-0.6-0.9-1.3-2.2-3-0.7-0.5-1.5-1.2-0.9-0.7-1.7-1.5-16-17.8-30.8-19.1-14.1 0.8-28.3 17.3l-0.1 0.1q-28 33.5-14.1 83.2zm271.9 157.3q-5.4 1.2-10.8 1.1-21.6 0-35.7-11.7l-0.1-0.2q-14-11-16.1-26.8-2.7 0.1-5.4 0.1-28.1 0-40.7-20.6-1.1-1.7-2.1-3.5-12.5 5.2-26.8 5.2-3.4 0-6.7-0.4 22.8 19.5 24.9 41.4 0.8 6.7-3.4 12.2-4.2 5.4-10.9 6.3-6.8 0.9-12.3-3.3-5.4-4.2-6.3-10.9-2.5-12.3-17.6-23.9l-0.1-0.1q-16.6-12.3-32.1-12.7-3.3 0.3-10.5 3l-0.3 0.1q-15.2 5.4-24.1 2.8-6.1-1.4-9.9-6.5-3.7-5.2-3-11.5 0.7-6.3 5.4-10.6 2.1-1.8 4.4-2.9 6.9-7.2 22.7-23.2v-0.1q6.6-6.5 9.1-13.9v-0.2l0.1-0.3q0.9-3.4 0.9-7 0.3-7.9-5.4-12.2l0.2 0.2q-7.5-5-19.1-5-2.4 0-4.6 0.2-0.3 0-0.6 0-4.2 0.6-8.3 1.8l0.6-0.1q-12 3.9-24.6 13.8-0.6 0.6-1.3 1.1-0.2 0.1-0.4 0.2-5.1 4-10.2 8.9-29.2 27.9-29.7 61.1 0.9 23.3 25.8 53.9l0.1 0.1q26.9 31.9 99.5 47.8 6.7 1.5 10.3 7.4 3.8 5.7 2.3 12.4-1.5 6.7-7.3 10.3-5.8 3.7-12.5 2.3-14-3.1-26.6-6.7-3.5 4.6-4.1 9 1.5 17.9 25.6 29.7l0.1 0.1q26.3 13.1 57.8 17.1h0.1q30.9 3.5 62.2-7l-0.1 0.1q16.8-6.6 22.3-25.2-10.4-0.8-19.4-6.4-6-3.3-8-9.9-2.1-6.5 1.2-12.5 3.2-6.1 9.8-8.1 6.5-2 12.6 1.2 15.4 5.9 40.7-12.9l0.2-0.2q21.1-17.6 18.2-54.4zm34.8-87q-0.4-17.7-7.5-27.3-5.7-6.4-13.6-6.7l-0.2-0.1q-0.8 0.8-1.6 1.3-3.9 23.1-16.5 43.9l-0.1 0.1q-10.5 16.9-23.7 26.3-0.5 1.5-1.2 2.9-0.2 0.4-0.4 0.8 0 0.7 0 1.8 0.3 4.4 4.1 7.4l0.1 0.2q6 4.4 15 4.4 6.9-0.2 13.9-4.5 0.4-0.3 0.9-0.7l0.3-0.2q7-4.7 14.2-12.6h-0.2q16.1-17.8 16.5-36.8z"/></svg>