<svg version="1.2" xmlns="http://www.w3.org/2000/svg" viewBox="0 0 700 700" width="700" height="700"><style></style><path fill-rule="evenodd" d="m344.4 607.9q-31.9-4-58.4-17.1-38.7-19.2-37.5-50.8-0.4-8.7 4.1-17.3-34.1-14.2-50.5-35.3-28.8-35.6-28.1-63.6-0.4-39.5 34-72.5 13.5-12.9 26.6-20.2-14.4-29.1-29.4-73.2-19.4-56.3-19.5-75.1v-0.2q-0.8-20.7 5.3-36.9v0.2q6.6-18.9 24.3-28.4 18.2-11.7 48 4.4l0.1 0.1q21.5 9.9 35.7 55.9 0-0.8 0.1-1.5 4.8-65.8 34.4-77.8 30-14.9 53.8-0.6l-0.1-0.1q24.1 13.5 28 38.7 0.1 0.1 0.1 0.2 3.1 19.4-4 73.7-3.5 26.2-8.2 51.4 8.2-3 17-2.8 25.7-0.9 43.4 27.4l0.1 0.1q13 21.2 13.8 47h0.7q19.9-0.8 34.8 19.6 13.1 17.7 13.2 41.2 0.5 27-23.5 49.9l-0.1 0.1q-9.8 9.6-19.7 14.8v1.2q0.1 0.9 0.7 4.2 1 6.5 1 9.4 0.1 29.6-22.5 51.4-6 5.8-12.4 10.1 0.2 1.5 0.2 3.1-1.6 49.7-40.1 62-32.8 11.4-65.4 7.3zm98.4-187.7q-0.2 2.5-1.4 4.8v-0.4q-0.1 0.2-0.1 0.4 0 0.5 0 2.3 0.1 3.8 3.3 6.3l0.1 0.1q5.2 3.8 12.7 3.8 12.6-0.6 25.8-13.4v-0.1q14.4-13.7 14.9-29.6 0-14-7.7-24.5-5.5-7.4-12.1-8.1-1.7 1.3-3.4 2.2-3.5 15.7-10.9 30v0.1q-9.2 17.3-21.2 26.1zm-94.9 159.7q26.2 3.2 52.7-5.9 16.9-6.7 20.3-27.5-3.4 0.5-7 0.6-5.8 0.3-10.1-3.7-4.3-3.9-4.6-9.8-0.2-5.8 3.7-10.1 4-4.3 9.8-4.6 16.7-0.9 29.8-13.7 13.8-13.3 13.9-31.2-0.1-1.5-0.6-4.8v-0.1q-0.3-1.9-0.5-3.5-16.7-0.6-28.3-10l-0.1-0.1q-13.1-10.6-13.8-26.2-22.6-0.2-32.9-19.4l-0.2-0.1q-6.7-12.1-6.7-31.8-0.5-6.6 7.3-26.8 0-0.1 0.1-0.3 7.9-19.4 11.6-22.9 3.8-4.4 9.6-4.9 5.8-0.4 10.2 3.5 4.5 3.8 4.9 9.6 0.4 5.8-3.5 10.2-1.6 2.6-6.6 14.8 0 0.2-0.1 0.3-4.8 12.6-5.3 16.6 0 11.3 3.5 18.4l-0.2-0.1q2.7 4.9 8.5 4.7 15.5-1 25.7-20.3v0.1q10.5-20 10.5-43.7 0-19.8-9.8-35.9l0.1 0.1q-8.4-13.3-19.5-14.2-10.3 0.4-18.9 9.8l-0.1 0.1q-6.1 6.9-8.7 14.4-0.2 0.6-0.4 1-0.5 1.7-0.8 3.4-0.1 0.4-0.1 0.7-0.2 1.5-0.3 3.1-0.6 5.7-5.2 9.5-4.5 3.6-10.2 3-5.8-0.6-9.5-5.1-3.7-4.5-3.1-10.3 0.2-2.1 0.4-4 0-0.3 0.1-0.7 0.7-4.7 2.2-9 11.1-46.1 17.7-96.3 6.4-48.6 4.1-66l0.1 0.2q-2.2-11.9-14-18.4l-0.1-0.1c-8.1-4.2-17.2-3.7-27.5 1.4q-15.3 9.9-18.6 54.5-3.8 53.7 7.6 134.6 0.8 5.4-2.4 9.9-3.2 4.6-8.5 5.9-5.3 1.1-10.1-1.7-4.8-2.7-6.4-7.9-16.3-52.4-29.7-111.6l0.1 0.1q-11.6-50.1-28-61l0.1 0.1q-13.5-7.3-21.3-4.6-8.2 4.4-11.3 13.1v0.2q-4.1 11.6-3.7 26.3v0.2q0.8 16.4 18.1 66.7 15.3 44.8 29.7 73.2 4-0.4 8-0.4 20.1 0 32.7 9.7l0.2 0.1q15.5 11.8 15.7 32.9 0.2 17.8-11.8 32.7 16 3.2 32.5 15.7 23.9 18 26.1 38.8 0.8 5.8-2.7 10.5-3.5 4.7-9.2 5.5-5.8 0.8-10.5-2.8-4.7-3.4-5.5-9.1-2.3-10.7-15.1-20.5-14.1-10.6-27.3-11-2.8 0.3-9 2.6-0.2 0.1-0.3 0.2-13.2 4.4-20.6 2.2-5.3-1.1-8.5-5.5-3.1-4.4-2.5-9.8 0.5-5.3 4.6-9 1.9-1.7 4-2.5 5.9-6.3 19.2-19.7 8.1-8.3 8.4-18.3 0.3-6.6-4.5-10.3-6.2-4.2-15.9-4.2-5.7 0-11.3 1.6-0.2 0.1-0.3 0.1-14.8 5.2-30.6 20.4h0.1q-24.9 23.8-25.3 52 0.8 19.8 21.8 45.9 23.1 27.2 85 40.8 5.7 1.3 8.8 6.2 3.1 4.9 1.9 10.6-1.3 5.7-6.2 8.8-4.9 3.2-10.6 2-12-2.7-22.7-5.8-3 3.9-3.5 7.7 1.2 15.3 21.8 25.5 22.4 11 49.4 14.4z"/></svg>