<svg version="1.2" xmlns="http://www.w3.org/2000/svg" viewBox="0 0 700 700" width="700" height="700"><style></style><path fill-rule="evenodd" d="m379.6 334.9c-7.3 0-13.5-3.9-17.4-9-3.4 2.3-7.8 3.9-12.3 3.9-6.7 0-12.9-3.3-16.8-8.4-3.9 2.3-7.9 4-12.9 4-11.8 0-21.3-10.7-21.3-22.4v-21.9c0-2.2 0.6-4.5 1.1-6.7-5.6-23-6.1-48.2-6.1-65.5 0.5-16.8 8.9-32.5 23.5-41.5l1.1-0.5v-23c0-3.9 2.8-6.7 6.7-6.7 4 0 6.8 2.8 6.8 6.7v26.9c0 2.2-1.2 4.5-3.4 5.6l-6.2 3.9c-10 6.7-16.8 17.9-16.8 30.3 0 14 0.6 33.6 4 52.6 2.8-1.7 5.6-2.2 8.9-2.2 4.5 0 9 1.1 12.3 3.9 4-5.1 10.1-8.4 16.8-8.4q6.8 0 11.8 3.3c1.1-1.6 2.2-3.3 3.9-5 3.4-3.4 7.9-5 12.3-5.6-11.7-12.3-14.5-28-13.4-37.5 0.6-3.4 3.4-6.2 6.7-6.2h0.6c3.9 0.6 6.7 3.4 6.1 7.3 0 1.1-1.6 24.1 21.9 35.3l1.1-7.9c0.6-3.3 4.5-6.1 7.8-5.6 3.4 0.6 6.2 4 5.6 7.9l-2.2 15.1c-0.6 3.4-3.4 5.6-6.7 5.6l-23.5-1.1c-2.3 0-4 0.5-5.6 2.2-1.2 1.7-2.3 3.4-2.3 5.6 0 4.5 3.4 7.9 7.9 7.9l34.7 0.5c8.4 0.6 15.7-5.6 16.8-14l3.9-28.5c1.7-11.8-1.7-23-9.5-32l-26.9-30.8c-1.1-1.1-1.7-2.8-1.7-4.4v-25.8c0-3.9 2.8-6.7 6.7-6.7 4 0 6.8 2.8 6.8 6.7v23l25.2 29.1c10 11.7 15.1 27.4 12.8 42.5l-3.9 28.6c-1.1 9.5-6.7 17.4-14.5 21.8v19.6c0 9.6-6.2 18.5-15.2 21.3-6.7 2.3-13.4 0.6-18.4-2.8-4 5.1-10.1 8.4-16.8 9zm20.7-26.3c0 4.4 3.3 7.8 7.8 7.8 4.5 0 7.9-3.4 7.9-7.8v-16.8h-2.3l-13.4-0.6zm-71.7-27.4c0-4.5-3.4-7.9-7.8-7.9-4.5 0-7.9 3.4-7.9 7.9v22.9c0 4.5 3.4 7.9 7.9 7.9 4.4 0 7.8-3.4 7.8-7.9zm29.1-3.9c0-4.5-3.3-7.8-7.8-7.8-4.5 0-7.9 3.3-7.9 7.8v30.8c0 4.5 3.4 7.8 7.9 7.8 4.5 0 7.8-3.3 7.8-7.8zm21.3 43.7c4.5 0 7.8-3.4 7.8-7.9v-21.8h-7.2c-2.8-0.6-5.6-1.1-8.4-2.2v24c0 4.5 3.3 7.9 7.8 7.9z"/><path fill-rule="evenodd" d="m337 403.2c2.2 5.1 1.7 11.2-0.6 16.2-2.8 5.6-6.7 9.6-12.3 11.2l-43.1 15.7c1.7 1.7 2.8 3.9 3.9 6.7 2.3 5.1 1.7 11.2-0.5 16.3-0.6 0.5-1.2 1.7-1.7 2.2q5.9 3.4 8.4 10.1c3.9 11.2-1.7 23.5-12.9 27.4l-21.3 7.9c-1.1 0-1.7 0.5-2.8 0.5-16.8 14.6-36.4 26.9-50.4 34.8-14.5 8.4-32.5 8.4-47.6 0.5l-3.3-1.7-20.2 11.8c-2.8 2.2-7.3 1.1-9-2.2-2.2-2.8-1.1-7.3 2.3-9l22.9-12.9q3.4-1.7 6.8 0l6.7 3.4c11.2 5.6 24.1 5.6 34.7-0.6 11.2-6.7 26.3-15.7 40.3-26.9-2.2-1.6-4.5-3.9-6.1-6.7q-0.9-1.7-1.7-3.3c-1.7-4.5-1.7-9 0-14-4.5-1.7-9-5.1-11.8-9.6q-0.8-1.6-1.7-3.3c-1.1-2.8-1.1-6.2-1.1-9-2.8 0.6-5 0-7.3-0.5-4.4-1.2-8.4-4-11.2-7.3-5 16.2-17.3 26.3-25.7 30.2-2.8 1.7-6.7 0-8.4-2.8-0.6 0-0.6-0.5-0.6-0.5-1.7-3.4 0-7.3 3.4-9 1.1-0.6 21.8-10.6 19.6-36.4l-7.3 2.8c-3.4 1.1-7.3-0.6-8.4-3.9-1.1-3.4 0.6-7.3 3.9-8.4l14-5.6c3.4-1.1 6.7 0.5 8.4 3.3l11.2 21.3c0.6 1.7 2.3 3.4 4.5 3.9 2.2 0.6 4.5 0.6 6.2-1.1 3.3-2.2 5-6.7 2.8-10.6l-16.8-30.3v-0.5c-4.5-6.7-12.9-10.1-20.8-6.7l-26.8 11.2c-11.2 4.4-19.1 13.4-23 24.6l-12.9 38.6c-0.5 1.7-1.1 3.4-2.8 4l-22.4 12.8c-2.8 2.3-6.7 0.6-8.9-2.2-2.3-2.8-1.2-7.3 2.2-9l20.2-11.7 12.3-36.4c5-14.6 15.7-26.3 30.2-32.5l26.9-11.2c9.5-3.9 20.2-2.8 28 2.8l59.9-49.8c9-7.3 22.4-6.2 30.3 2.8 7.2 8.9 6.1 22.9-2.8 30.2l-33.6 28 50.4-18.5c5-2.2 11.2-1.7 16.2 0.6 5 2.8 9 6.7 11.2 12.3zm-114.8 17.9l61-50.9c2.8-2.3 3.4-6.8 1.7-10.1 0-0.6 0-0.6-0.5-1.1-2.8-3.4-7.9-4-11.2-1.2l-58.8 49.3c0.5 0 0.5 0.6 0.5 0.6zm15.7 57.1l29.1-10.6c2.3-0.6 3.4-2.3 4.5-4 1.1-2.2 1.1-3.9 0.6-6.1 0-0.6-0.6-0.6-0.6-1.1q-0.8-2.6-3.4-3.4c-2.2-0.6-3.9-0.6-6.1 0l-29.1 10.6c-4 1.2-6.2 6.2-4.5 10.1 0.5 2.3 2.2 3.4 3.9 4.5 1.7 1.1 3.9 1.1 5.6 0zm40.3 8.4c-1.1-3.9-6.1-6.2-10.1-4.5l-21.2 7.9c-1.7 0.5-3.4 2.2-4.5 3.9-0.6 2.2-0.6 3.9 0 6.1 0.5 2.3 1.7 4 3.9 4.5 2.2 0.6 3.9 0.6 6.2 0l21.2-7.8c2.3-0.6 3.4-2.3 4.5-3.9 1.1-2.3 1.1-4 0-6.2zm45.9-79.5c-0.5-2.3-2.2-3.4-3.9-4.5-2.2-0.6-3.9-0.6-6.1 0l-84.6 30.8 2.2 4.5c1.7 3.3 2.3 7.3 2.3 10.6l85.1-30.8c2.2-0.5 3.4-2.2 4.5-3.9 1.1-2.2 1.1-3.9 0.5-6.7z"/><path  d="m615.9 491.1c-1.7 3.4-5.6 4.5-9 2.8l-21.8-12.3c-1.7-1.1-2.8-2.2-3.4-3.9l-10.6-35.9c-3.9-12.3-12.3-22.4-23.5-28.5l-42-22.4c-3.4-2.3-8.4-1.1-10.7 2.8-1.1 1.7-1.7 3.9-1.1 6.1 0.6 2.3 1.7 4 3.9 5.1l21.3 12.3c5 2.2 9 5.6 12.3 11.8l3.4 2.8c2.8 2.8 2.8 6.7 0.5 9.5-2.8 2.8-6.7 2.8-9.5 0.5l-3.3-2.8c-1.7-1.6-4-3.3-5.6-4.4-6.2 32.4 17.9 42.5 19 43.1 3.4 1.1 5 5 3.9 8.4-0.5 0-0.5 0.5-0.5 0.5-1.7 2.8-5.1 4-8.4 2.8-0.6 0-37.6-15.6-25.8-62.7l-14.6-8.4c-5-2.8-8.4-7.8-10-13.4l-50.4-28.6c-4-2.2-8.4-1.1-10.7 2.8-2.2 3.4-1.1 8.4 2.8 10.7l52.7 29.6c3.3 1.7 4.4 5.6 2.8 9-1.7 3.4-5.6 4.5-9 2.8l-62.2-35.3c-3.3-2.2-8.4-1.1-10.6 2.8-2.2 3.4-1.1 8.4 2.8 10.7l67.2 38c3.4 1.7 4.5 5.6 2.8 9-1.7 2.8-5.6 3.9-9 2.2l-57.6-32.4c-4-2.3-8.4-1.2-10.7 2.8-2.2 3.3-1.1 8.4 2.8 10.6l65.5 38.6c3.4 1.7 4.5 5.6 2.8 9-1.6 3.4-5.6 4.5-8.9 2.8l-42-23.5c-3.4-2.3-8.4-1.1-10.7 2.8-2.2 3.9-1.1 8.4 2.8 10.6l28.6 16.3c7.3 3.9 15.1 8.9 23.5 15.6l1.1 0.6c16.8 12.9 60.5 47 86.8 26.3 2.3-1.7 5.1-1.7 7.3-0.5l23 12.8c3.3 1.7 4.5 5.6 2.8 9-1.7 3.4-5.6 4.5-9 2.8l-19.6-11.2c-34.1 21.8-81.2-14.6-99.1-28.6l-1.1-0.5c-7.9-6.7-15.1-11.2-21.9-15.1l-28.5-16.3c-10.1-5.6-13.5-19-7.9-29.1 1.2-2.2 2.8-4.5 5.1-6.2l-7.9-4.4c-10-5.6-13.4-19.1-7.8-29.2 1.7-3.3 3.9-5.6 6.7-7.2-5-6.2-6.1-15.7-1.7-23.6 4.5-7.8 12.9-11.7 21.3-10.6 0.6-3.4 1.1-6.7 2.8-9.5 5.6-10.1 19.1-13.5 29.1-7.9l45.4 25.2c0.6-0.5 0.6-1.6 1.1-2.2 6.2-10.1 18.5-13.4 28.6-7.8l42 22.4c14.5 7.8 25.2 20.7 29.7 36.4l10 33 19.6 11.2c3.4 1.7 4.5 6.2 2.3 9.5z"/></svg>